/* XPM */
static char *exit[] = {
"40 40 3 1",
"  c None",
". c #00FF00",
"X c #008000",
/* pixels */
"                                        ",
"                                        ",
"                                        ",
"                                        ",
"         ....................           ",
"        ......................          ",
"       ........................         ",
"      ..........................        ",
"     ............................       ",
"    ..............................      ",
"   ................................     ",
"   ............XXXXXX..............     ",
"   ............XXXXXX..............     ",
"   ............XXXXXX..............     ",
"   ............XXXXXX..............     ",
"   ............XXXXXX..............     ",
"   ............XXXXXX..............     ",
"   ............XXXXXX..............     ",
"   ............XXXXXX..............     ",
"   ............XXXXXX..............     ",
"   ............XXXXXX..............     ",
"   ............XXXXXX..............     ",
"   ............XXXXXX..............     ",
"   ............XXXXXX..............     ",
"   ............XXXXXX..............     ",
"   ............XXXXXX..............     ",
"   ............XXXXXX..............     ",
"   ............XXXXXX..............     ",
"   ............XXXXXX..............     ",
"   ............XXXXXX..............     ",
"   ............XXXXXX..............     ",
"   ............XXXXXX..............     ",
"    ..............................      ",
"     ............................       ",
"      ..........................        ",
"       ........................         ",
"        ......................          ",
"         ....................           ",
"                                        ",
"                                        ",
"                                        "
};