/* XPM */
static char * floor_xpm[] = {
"64 64 6 1",
" 	c None",
".	c #2D2242",
"+	c #7678A2",
"@	c #59557F",
"#	c #595580",
"$	c #3D3964",
"                                                                ",
"                                                                ",
"                                                                ",
"                                                                ",
"                                                                ",
"                                                                ",
"                                                                ",
"                                                                ",
"                                                                ",
"                                                                ",
"                                                                ",
"                                                                ",
"                                                                ",
"                                                                ",
"                                                                ",
"                                                                ",
"                                                                ",
"                                                                ",
"................................................................",
".++++++++++++++++@+++++++++++++++++++++++++++++++@++++++++++++++",
".++++++++++++++++@+++++++++++++++++++++++++++++++@++++++++++++++",
".+++++++++++++++++++++++++++++++++++++++++++++++++++++++++++++++",
".+++++++++++++++++++++++++++++++++++++++++++++++++++++++++++++++",
".+++++++++++++++++++++++++++++++++++++++++++++++++++++++++++++++",
".#++++++++++++++++++++++++++++++++++++++++++++++++++++++++++++++",
".#++++++++++++++++++++++++++++++++++++++++++++++++++++++++++++++",
".#++++++++++++++++++++++++++++++++++++++++++++++++++++++++++++++",
".########+++++++++++++++++++++++++++++++++++++++++++++++++++++++",
".#++++++++++++++++++++++++++++++++++++++++++++++++++++++++++++++",
".#++++++++++++++++++++++++++++++++++++++++++++++++++++++++++++++",
".#++++++++++++++++++++++++++++++++++++++++++++++++++++++++++++++",
".#++++++++++++++++++++++++++++++++++++++++++++++++++++++++++++++",
".$++++++++++++++++++++++++++++++++++++++++++++++++++++++++++++++",
".$$###$$$##$###+++++++++++++++++++++++++++++++++++++++++++++++++",
".$++++++++++++###+++++++++++++++++++++++++++++####++++++++++++++",
".$+++++++++++++++++++++++++++++++++++++++++++++++@++++++++++++++",
".$+++++++++++++++++++++++++++++++++++++++++++++++@++++++++++++++",
".#+++++++++++++++++++++++++++++++++++++++++++++++@++++++++++++++",
".#+++++++++++++++++++++++++++++++++++++++++++++++@++++++++++++++",
".#+++++++++++++++++++++++++++++++++++++++++++++++@++++++++++++++",
".#+++++++++++++++++++++++++++++++#+++++++++++++++@++++++++++++++",
".#+++++++++++++++++++++++++++++++#+++++++++++++++@++++++++++++++",
".#+++++++++++++++++++++++++++++++#+++++++++++++++@++++++++++++++",
".#+++++++++++++++++++++++++++++++$+++++++++++++++$++++++++++++++",
".#+++++++++++++++++++++++++++++++$+++++++++++++++$++++++++++++++",
".++++++++++++++++++++++++++++++++$+++++++++++++++$++++++++++++++",
".++++++++++++++++++++++++++++++++#+++++++++++++++@++++++++++++++",
".++++++++++++++++++++++++++++++++#+++++++++++++++@++++++++++++++",
".+++++++++++++++++++++++++++++++++#####++++++++++@++++++++++++++",
".++++++++++++++++++++++++++++++++++++++++++++++++@++++++++++++++",
".+++++++++++++++++++++++++++++++++++#$$$#########@####++++++++++",
".++++++++++++++++++++++++++++++++++++++++++++++++$++++++++++++++",
".++++++++++++++++++++++++++++++++++++++++++++++++@++++++++++++++",
".++++++++++++++++++++++++++++++++++++++++++++++++@++++++++++++++",
".++++++++++++++++@+++++++++++++++++++++++++++++++@++++++++++++++",
".++++++++++++++++@+++++++++++++++++++++++++++++++@++++++++++++++",
".++++++++++++++++@+++++++++++++++++++++++++++++++@++++++++++++++",
".++++++++++++++++@+++++++++++++++++++++++++++++++@++++++++++++++",
".++++++++++++++++@+++++++++++++++++++++++++++++++@++++++++++++++",
".+++++++++++++++++++++++++++++++++++++++++++++++++++++++++++++++",
".+++++++++++++++++++++++++++++++++++++++++++++++++++++++++++++++",
".+++++++++++++++++++++++++++++++++++++++++++++++++++++++++++++++",
".#++++++++++++++++++++++++++++++++++++++++++++++++++++++++++++++",
".#++++++++++++++++++++++++++++++++++++++++++++++++++++++++++++++"};
