/* XPM */
static char *player[] = {
"40 40 3 1",
"  c None",
". c #FFD700",
"X c #FFA500",
/* pixels */
"                                        ",
"                                        ",
"            ................            ",
"          ....................          ",
"         ......................         ",
"        ........................        ",
"       ..........................       ",
"      ............................      ",
"      ............XX................    ",
"     .............XX.................   ",
"     ..............XX................   ",
"     ...............XX...............   ",
"     ................XX..............   ",
"     .................XX.............   ",
"     ..................XX............   ",
"     ...................XX...........   ",
"     ....................XX..........   ",
"     .....................XX.........   ",
"     ......................XX........   ",
"     .......................XX.......   ",
"     ........................XX......   ",
"     .........................XX.....   ",
"     ..........................XX....   ",
"     ...........................XX...   ",
"     ............................XX..   ",
"     .............................XX.   ",
"     ..............................X.   ",
"      .............................X.   ",
"       ............................X.   ",
"        ...........................X.   ",
"         ..........................X.   ",
"          .........................X.   ",
"           ........................X.   ",
"            .......................X.   ",
"             ......................X.   ",
"              .....................X.   ",
"               ....................X.   ",
"                ...................X.   ",
"                 ..................X.   ",
"                  .................X.   "
};
